<?xml version="1.0" encoding="iso-8859-1"?>
<!-- Generator: Adobe Illustrator 22.0.1, SVG Export Plug-In . SVG Version: 6.00 Build 0)  -->
<svg version="1.1" xmlns="http://www.w3.org/2000/svg" xmlns:xlink="http://www.w3.org/1999/xlink" x="0px" y="0px"
	 viewBox="0 0 64 64" style="enable-background:new 0 0 64 64;" xml:space="preserve">
<g id="_x34_">
	<g>
		<path style="fill:#90B74B;" d="M37.285,51.076C31.637,61.263,20.596,63.955,19.994,64l-3.895-6.671
			c0.141-0.005,13.388,1.335,18.404-7.736c2.395-4.336,3.236-9.488,1.1-16.038c-0.246-2.968-1.212-5.582-0.471-4.056
			c0.836,1.722,1.97,3.401,3.183,4.882C40.163,40.912,39.813,46.506,37.285,51.076z"/>
	</g>
	<path style="fill:#90B74B;" d="M34.437,30.416c-0.246-2.968-0.996-6.046-2.61-8.339c-0.011-0.014-0.018-0.017-0.029-0.031
		c-0.062-0.054-0.144-0.083-0.222-0.084c-5.933,0.484-13.037,7.123-14.45,10.208c-1.118,2.439-0.331,5.438,2.273,6.631
		c2.74,1.256,5.412-3.023,6.192-3.438c0.188,0.859-1.408,5.63,1.432,6.931c2.604,1.193,5.389-0.169,6.507-2.608
		C34.178,38.274,34.771,34.44,34.437,30.416z M44.602,3.933c-2.74-1.256-5.412,3.023-6.189,3.43
		c-0.199-0.855,1.405-5.623-1.436-6.924c-2.604-1.193-5.389,0.169-6.507,2.608c-1.127,2.46-2.088,12.227,1.707,17.602
		c0.059,0.079,0.152,0.122,0.251,0.115c5.929-0.477,13.034-7.116,14.447-10.2C47.992,8.125,47.205,5.126,44.602,3.933z"/>
	<path style="fill:#AAD15D;" d="M31.4,20.944c-0.477-5.929-7.116-13.034-10.2-14.447c-2.439-1.118-5.435-0.338-6.628,2.266
		c-1.259,2.747,3.023,5.412,3.43,6.189c-0.855,0.199-5.626-1.398-6.928,1.443c-1.193,2.604,0.172,5.382,2.611,6.5
		c2.453,1.124,12.22,2.084,17.602-1.707C31.367,21.129,31.406,21.043,31.4,20.944z M45.998,27.781
		c0.855-0.199,5.626,1.398,6.928-1.443c1.193-2.604-0.172-5.382-2.611-6.5c-2.453-1.124-12.22-2.084-17.602,1.707
		c-0.024,0.015-0.041,0.033-0.062,0.059c-0.033,0.054-0.053,0.115-0.05,0.185c0.252,3.162,2.26,6.66,4.547,9.452
		c2.007,2.439,4.211,4.334,5.653,4.994c2.439,1.118,5.435,0.338,6.628-2.266C50.688,31.223,46.406,28.558,45.998,27.781z"/>
</g>
<g id="Layer_1">
</g>
</svg>
